<?xml version="1.0" encoding="UTF-8"?>
<svg version="1.1" xmlns="http://www.w3.org/2000/svg" width="256" height="256">
<path d="M0 0 C84.48 0 168.96 0 256 0 C256 84.48 256 168.96 256 256 C171.52 256 87.04 256 0 256 C0 171.52 0 87.04 0 0 Z " fill="#0960A8" transform="translate(0,0)"/>
<path d="M0 0 C0.39288435 4.36024587 -0.51581277 6.21845637 -3.1875 9.625 C-11.5795773 21.0239552 -15.20037754 32.86897324 -14 47 C-12.11289883 56.42420586 -8.08181645 64.16057167 -0.34765625 70.00390625 C7.3532549 75.06390137 14.95935263 78.23087608 23.9375 80.125 C24.69740234 80.29386719 25.45730469 80.46273437 26.24023438 80.63671875 C49.84772499 85.75738708 74.49041105 83.44960023 98 79 C99.20221191 78.7836792 99.20221191 78.7836792 100.42871094 78.56298828 C116.55195517 75.59518898 132.55851498 69.57425328 147.02368164 61.93334961 C149 61 149 61 151 61 C151 66.28 151 71.56 151 77 C122.19644367 90.09252561 93.2272774 97.58177187 61.47485352 97.44604492 C58.43632936 97.43749671 55.39967035 97.46650191 52.36132812 97.49804688 C30.87683872 97.57632431 8.43551453 94.06873577 -8 79 C-8.60972656 78.50371094 -9.21945313 78.00742188 -9.84765625 77.49609375 C-17.52508186 70.76358206 -22.44694269 60.11852067 -23.13476562 50.02172852 C-23.60003405 40.32022336 -23.44085444 31.85258853 -19 23 C-18.63777344 22.236875 -18.27554687 21.47375 -17.90234375 20.6875 C-15.0219666 15.06344156 -6.89083798 0 0 0 Z " fill="#F9FBFD" transform="translate(46,99)"/>
<path d="M0 0 C0.75073792 -0.00608276 1.50147583 -0.01216553 2.27496338 -0.01843262 C24.72839977 -0.13747737 47.34135797 4.02416447 64.5 19.6875 C73.74742922 29.53656919 75.17488919 40.05719078 74.96484375 52.91015625 C74.56606488 62.49870496 70.32847914 69.90138877 64.6875 77.4375 C63.57375 78.984375 63.57375 78.984375 62.4375 80.5625 C57.26675172 85.96828229 51.07138438 90.68868528 43.6875 92.4375 C43.20999736 88.33893568 43.00616828 84.52024933 43.6875 80.4375 C45.4454277 78.32536299 47.18722347 77.20122646 49.52734375 75.77734375 C56.56818867 71.41023741 61.37922589 62.79401854 63.30859375 54.89453125 C64.73032347 45.67527357 63.42953018 36.89690065 57.9375 29.1875 C47.42573613 16.38272881 31.80806542 10.93477676 15.71484375 8.75 C-4.36693306 6.8902827 -24.81795856 8.3693638 -44.3125 13.4375 C-45.69351307 13.75736328 -47.07506037 14.07492562 -48.45703125 14.390625 C-62.29463358 17.66622158 -75.22696316 22.93243949 -88.3125 28.4375 C-87.98413086 26.06201172 -87.98413086 26.06201172 -87.3125 23.4375 C-85.14084687 21.86204752 -83.25492449 20.72854567 -80.875 19.5625 C-80.21121338 19.22444336 -79.54742676 18.88638672 -78.86352539 18.53808594 C-66.60861242 12.45112395 -53.61686168 7.62016558 -40.3125 4.4375 C-39.59868164 4.25558105 -38.88486328 4.07366211 -38.14941406 3.88623047 C-25.47080175 0.7418283 -12.99932527 0.03965565 0 0 Z " fill="#F6F9FC" transform="translate(157.3125,58.5625)"/>
<path d="M0 0 C3.78670117 3.50269858 6.18826359 6.68902719 8.5 11.3125 C8.5 15.2725 8.5 19.2325 8.5 23.3125 C-0.41 23.3125 -9.32 23.3125 -18.5 23.3125 C-16.31940167 30.16075895 -16.31940167 30.16075895 -12.5 32.3125 C-6.89859188 32.85109693 -3.4182611 31.72144421 1.5 29.3125 C3.48 30.9625 5.46 32.6125 7.5 34.3125 C6.27659787 37.9827064 4.66295121 38.61175941 1.38671875 40.4453125 C-4.19361609 43.0101869 -10.93075392 43.43321891 -16.7890625 41.59375 C-22.54341129 38.92131835 -25.74080598 35.39030547 -28.25 29.5625 C-30.86065615 21.91700699 -29.9118559 14.55928194 -26.5 7.3125 C-20.74279214 -2.0582745 -9.81991669 -4.73460269 0 0 Z " fill="#F8FAFC" transform="translate(167.5,109.6875)"/>
<path d="M0 0 C6.496875 -0.12375 6.496875 -0.12375 13.125 -0.25 C15.15744873 -0.30462402 15.15744873 -0.30462402 17.23095703 -0.36035156 C27.17240668 -0.45219628 27.17240668 -0.45219628 30.7421875 1.765625 C34.04321839 5.03238913 34.92821827 6.86970782 35.22705078 11.57519531 C35.22673603 12.99287798 35.21554951 14.41058674 35.1953125 15.828125 C35.1924826 16.57713074 35.18965271 17.32613647 35.18673706 18.09783936 C35.1755726 20.48205776 35.15047531 22.86589579 35.125 25.25 C35.11496535 26.86978623 35.10584035 28.48957836 35.09765625 30.109375 C35.07564555 34.07306246 35.04114175 38.03646681 35 42 C31.37 42 27.74 42 24 42 C23.67 31.44 23.34 20.88 23 10 C19.04 9.67 15.08 9.34 11 9 C11 19.89 11 30.78 11 42 C7.37 42 3.74 42 0 42 C0 28.14 0 14.28 0 0 Z " fill="#F7F9FC" transform="translate(74,109)"/>
<path d="M0 0 C3.63 0 7.26 0 11 0 C11 3.63 11 7.26 11 11 C13.64 11 16.28 11 19 11 C19 14.3 19 17.6 19 21 C16.36 21 13.72 21 11 21 C11.33 28.59 11.66 36.18 12 44 C14.31 44.33 16.62 44.66 19 45 C19 47.97 19 50.94 19 54 C7.17928253 54.86073185 7.17928253 54.86073185 3.3125 51.6875 C0.32108647 48.21099239 -0.12566079 45.86618937 -0.11352539 41.43676758 C-0.11344986 40.51603958 -0.11337433 39.59531158 -0.11329651 38.64668274 C-0.10813522 37.65597275 -0.10297394 36.66526276 -0.09765625 35.64453125 C-0.0962413 34.62775803 -0.09482635 33.6109848 -0.09336853 32.56340027 C-0.08776707 29.31307036 -0.07521432 26.06280912 -0.0625 22.8125 C-0.05748519 20.61002704 -0.05292225 18.40755299 -0.04882812 16.20507812 C-0.03779716 10.80335893 -0.02053154 5.40169111 0 0 Z " fill="#F3F7FA" transform="translate(117,97)"/>
<path d="M0 0 C3.63 0 7.26 0 11 0 C11 19.8 11 39.6 11 60 C3.70019736 58.78336623 3.70019736 58.78336623 0.93545532 55.05218506 C-1.10349003 50.57918341 -0.59846065 45.6377214 -0.48828125 40.8203125 C-0.48120651 39.6524118 -0.47413177 38.48451111 -0.46684265 37.28121948 C-0.43892017 33.56182007 -0.37618052 29.84394217 -0.3125 26.125 C-0.28741459 23.59898012 -0.26460185 21.07293657 -0.24414062 18.546875 C-0.18909965 12.36399972 -0.10283723 6.18225757 0 0 Z " fill="#F4F8FB" transform="translate(183,91)"/>
<path d="M0 0 C3.63 0 7.26 0 11 0 C11 14.19 11 28.38 11 43 C6 43 6 43 3.25 40.625 C-0.37558452 36.39515139 -0.13328813 33.29477025 -0.09765625 27.9296875 C-0.0962413 27.13345978 -0.09482635 26.33723206 -0.09336853 25.51687622 C-0.08776345 22.9695462 -0.07521014 20.42230353 -0.0625 17.875 C-0.05748565 16.14974085 -0.05292263 14.42448033 -0.04882812 12.69921875 C-0.03779237 8.46611209 -0.02052436 4.23307086 0 0 Z " fill="#F2F7FA" transform="translate(53,108)"/>
<path d="M0 0 C3.91949464 2.78490409 4.01163532 4.05817662 5 9 C-0.61 9 -6.22 9 -12 9 C-10.48382497 1.41912485 -7.89442322 -1.12777475 0 0 Z " fill="#176AAD" transform="translate(161,117)"/>
<path d="M0 0 C3.63 0 7.26 0 11 0 C11 3.63 11 7.26 11 11 C7.37 11 3.74 11 0 11 C0 7.37 0 3.74 0 0 Z " fill="#E8F0F6" transform="translate(53,92)"/>
<path d="M0 0 C1.2375 0.1546875 1.2375 0.1546875 2.5 0.3125 C4.5 3.3125 4.5 3.3125 4.25 5.375 C3.5 7.3125 3.5 7.3125 1.5 9.3125 C-3.05555556 8.75694444 -3.05555556 8.75694444 -4.5 7.3125 C-4.6875 4.875 -4.6875 4.875 -4.5 2.3125 C-2.5 0.3125 -2.5 0.3125 0 0 Z " fill="#94BAD9" transform="translate(205.5,90.6875)"/>
<path d="M0 0 C1.5625 1.25 1.5625 1.25 3 3 C2.6875 5.1875 2.6875 5.1875 2 7 C1.34 7 0.68 7 0 7 C-0.99 5.02 -1.98 3.04 -3 1 C-2.01 0.67 -1.02 0.34 0 0 Z " fill="#689DC9" transform="translate(207,91)"/>
</svg>
