<?xml version="1.0" encoding="UTF-8"?>
<svg version="1.1" xmlns="http://www.w3.org/2000/svg" width="48" height="48">
<path d="M0 0 C2.07229211 -0.00436681 4.14244072 -0.04069138 6.21435547 -0.07861328 C8.18855469 -0.08441406 8.18855469 -0.08441406 10.20263672 -0.09033203 C11.40259277 -0.0985498 12.60254883 -0.10676758 13.83886719 -0.11523438 C17.90083024 0.47008832 20.03232895 1.81736729 23.21044922 4.37060547 C25.5965027 7.9496857 25.53305337 10.56892103 25.54638672 14.70654297 C25.55304352 15.42290924 25.55970032 16.13927551 25.56655884 16.87734985 C25.57667617 18.39200273 25.58137614 19.90670009 25.58105469 21.42138672 C25.5854211 23.73073438 25.62172651 26.03815931 25.65966797 28.34716797 C25.66553789 29.82111979 25.66950611 31.29508066 25.67138672 32.76904297 C25.68575775 33.4556601 25.70012878 34.14227722 25.7149353 34.84970093 C25.68222494 38.30837999 25.27685566 40.26420569 23.43164062 43.22070312 C17.839621 48.63324707 11.88239412 47.74297363 4.42089844 47.74121094 C2.34860633 47.74557774 0.27845772 47.78190232 -1.79345703 47.81982422 C-3.76765625 47.825625 -3.76765625 47.825625 -5.78173828 47.83154297 C-6.98169434 47.83976074 -8.18165039 47.84797852 -9.41796875 47.85644531 C-13.4799318 47.27112261 -15.61143052 45.92384365 -18.78955078 43.37060547 C-21.17560427 39.79152524 -21.11215493 37.17228991 -21.12548828 33.03466797 C-21.13547348 31.96011856 -21.13547348 31.96011856 -21.1456604 30.86386108 C-21.15577773 29.34920821 -21.1604777 27.83451085 -21.16015625 26.31982422 C-21.16452266 24.01047656 -21.20082807 21.70305163 -21.23876953 19.39404297 C-21.24463945 17.92009115 -21.24860767 16.44613028 -21.25048828 14.97216797 C-21.26485931 14.28555084 -21.27923035 13.59893372 -21.29403687 12.89151001 C-21.2613265 9.43283095 -20.85595722 7.47700525 -19.01074219 4.52050781 C-13.41872256 -0.89203613 -7.46149568 -0.0017627 0 0 Z " fill="#282928" transform="translate(21.78955078125,-0.37060546875)"/>
<path d="M0 0 C7.26 0 14.52 0 22 0 C22 7.59 22 15.18 22 23 C15.07 23 8.14 23 1 23 C1 22.01 1 21.02 1 20 C0.154375 20 -0.69125 20 -1.5625 20 C-6.60436697 18.53327506 -8.87325562 15.0610674 -12 11 C-10.61482883 7.5659298 -9.34555636 6.29977978 -6 4.75 C-5.29875 4.41484375 -4.5975 4.0796875 -3.875 3.734375 C-2 3 -2 3 0 3 C0 2.01 0 1.02 0 0 Z " fill="#313D1D" transform="translate(19,12)"/>
<path d="M0 0 C6.93 0 13.86 0 21 0 C21 7.59 21 15.18 21 23 C14.07 23 7.14 23 0 23 C0 22.01 0 21.02 0 20 C0.64066406 19.89042969 1.28132813 19.78085937 1.94140625 19.66796875 C7.3561691 18.67539672 12.03322639 17.37541347 17 15 C16.67 14.34 16.34 13.68 16 13 C15.46375 13.268125 14.9275 13.53625 14.375 13.8125 C13.59125 14.204375 12.8075 14.59625 12 15 C11.05125 15.53625 10.1025 16.0725 9.125 16.625 C5.79217675 18.09144223 3.59578599 18.25684186 0 18 C2.73149057 16.17900629 5.48568797 14.63448402 8.37890625 13.09765625 C10.31659477 11.93456966 10.31659477 11.93456966 12 9 C8.0949151 5.44992282 5.02265357 4.18180084 0 3 C0 2.01 0 1.02 0 0 Z " fill="#72B201" transform="translate(20,12)"/>
<path d="M0 0 C2.07229211 -0.00436681 4.14244072 -0.04069138 6.21435547 -0.07861328 C8.18855469 -0.08441406 8.18855469 -0.08441406 10.20263672 -0.09033203 C11.40259277 -0.0985498 12.60254883 -0.10676758 13.83886719 -0.11523438 C17.90083024 0.47008832 20.03232895 1.81736729 23.21044922 4.37060547 C25.5965027 7.9496857 25.53305337 10.56892103 25.54638672 14.70654297 C25.55304352 15.42290924 25.55970032 16.13927551 25.56655884 16.87734985 C25.57667617 18.39200273 25.58137614 19.90670009 25.58105469 21.42138672 C25.5854211 23.73073438 25.62172651 26.03815931 25.65966797 28.34716797 C25.66553789 29.82111979 25.66950611 31.29508066 25.67138672 32.76904297 C25.68575775 33.4556601 25.70012878 34.14227722 25.7149353 34.84970093 C25.68222494 38.30837999 25.27685566 40.26420569 23.43164062 43.22070312 C17.839621 48.63324707 11.88239412 47.74297363 4.42089844 47.74121094 C2.34860633 47.74557774 0.27845772 47.78190232 -1.79345703 47.81982422 C-3.76765625 47.825625 -3.76765625 47.825625 -5.78173828 47.83154297 C-6.98169434 47.83976074 -8.18165039 47.84797852 -9.41796875 47.85644531 C-13.4799318 47.27112261 -15.61143052 45.92384365 -18.78955078 43.37060547 C-21.17560427 39.79152524 -21.11215493 37.17228991 -21.12548828 33.03466797 C-21.13547348 31.96011856 -21.13547348 31.96011856 -21.1456604 30.86386108 C-21.15577773 29.34920821 -21.1604777 27.83451085 -21.16015625 26.31982422 C-21.16452266 24.01047656 -21.20082807 21.70305163 -21.23876953 19.39404297 C-21.24463945 17.92009115 -21.24860767 16.44613028 -21.25048828 14.97216797 C-21.26485931 14.28555084 -21.27923035 13.59893372 -21.29403687 12.89151001 C-21.2613265 9.43283095 -20.85595722 7.47700525 -19.01074219 4.52050781 C-13.41872256 -0.89203613 -7.46149568 -0.0017627 0 0 Z M-18.78955078 7.37060547 C-20.99720211 11.78590812 -20.01945412 17.77228661 -20.03955078 22.62060547 C-20.06017578 23.84908203 -20.08080078 25.07755859 -20.10205078 26.34326172 C-20.10720703 27.53306641 -20.11236328 28.72287109 -20.11767578 29.94873047 C-20.12702148 31.03573242 -20.13636719 32.12273438 -20.14599609 33.24267578 C-19.6048444 37.99146723 -18.25259068 41.18610586 -14.50439453 44.22070312 C-11.2751888 45.58846922 -8.85554962 45.75841096 -5.35205078 45.76904297 C-4.12744141 45.77291016 -2.90283203 45.77677734 -1.64111328 45.78076172 C-0.37009766 45.76916016 0.90091797 45.75755859 2.21044922 45.74560547 C3.48146484 45.75720703 4.75248047 45.76880859 6.06201172 45.78076172 C7.89892578 45.77496094 7.89892578 45.77496094 9.77294922 45.76904297 C10.88798828 45.76565918 12.00302734 45.76227539 13.15185547 45.75878906 C16.6514212 45.3146392 18.43906679 44.53856082 21.21044922 42.37060547 C24.05881694 38.69037916 24.58703381 35.97284189 24.57373047 31.37060547 C24.57308594 30.23623047 24.57244141 29.10185547 24.57177734 27.93310547 C24.55566406 26.75748047 24.53955078 25.58185547 24.52294922 24.37060547 C24.52617188 23.19498047 24.52939453 22.01935547 24.53271484 20.80810547 C24.65851016 11.64416496 24.65851016 11.64416496 20.01293945 4.09350586 C15.13590828 1.09522996 9.93209725 1.74174211 4.34545898 1.79418945 C2.28123431 1.80804984 0.22155661 1.77397257 -1.84228516 1.73583984 C-11.56563077 1.63371815 -11.56563077 1.63371815 -18.78955078 7.37060547 Z " fill="#0F0F0F" transform="translate(21.78955078125,-0.37060546875)"/>
<path d="M0 0 C-0.99 0.66 -1.98 1.32 -3 2 C-4.33790641 2.99387334 -5.67218122 3.9926892 -7 5 C-6.69209738 7.84809926 -6.34521809 9.58286148 -4.5 11.8125 C-0.67370879 13.62998833 2.84282002 13.66711503 7 13 C9.50496099 11.86983205 11.66129499 10.46742275 14 9 C15.32 9 16.64 9 18 9 C18 9.99 18 10.98 18 12 C11.20737972 15.30053567 4.58642123 17.70468691 -3 16 C-6.86073381 13.72934406 -10.31811744 11.14305947 -11.7109375 6.765625 C-11.80632813 6.18296875 -11.90171875 5.6003125 -12 5 C-4.88610478 -0.74031891 -4.88610478 -0.74031891 0 0 Z " fill="#6AA404" transform="translate(19,16)"/>
<path d="M0 0 C3.73487777 0.4979837 5.81237635 0.87491756 9 3 C8.62607279 5.71097227 8.18642373 6.82000467 6.1875 8.75 C4 10 4 10 0 10 C0 8.02 0 6.04 0 4 C-0.99 4.33 -1.98 4.66 -3 5 C-2.34 6.98 -1.68 8.96 -1 11 C-3.62187494 9.95125002 -4.79371361 9.35068687 -6.25 6.875 C-6.4975 6.25625 -6.745 5.6375 -7 5 C-3.375 2 -3.375 2 0 2 C0 1.34 0 0.68 0 0 Z " fill="#6DAA03" transform="translate(20,17)"/>
<path d="M0 0 C1.32 0.66 2.64 1.32 4 2 C0.49847 5.85816731 -3.88674523 7.71910483 -9.078125 8.1875 C-10.71994004 8.1875 -12.36138226 8.10241361 -14 8 C-14 7.34 -14 6.68 -14 6 C-13.11248047 5.85304688 -13.11248047 5.85304688 -12.20703125 5.703125 C-7.12957861 4.74230199 -3.82486256 3.7014799 0 0 Z " fill="#2D341F" transform="translate(34,24)"/>
<path d="M0 0 C0.66 0.99 1.32 1.98 2 3 C1.01 3.66 0.02 4.32 -1 5 C-1.33 4.34 -1.66 3.68 -2 3 C-3.65 3 -5.3 3 -7 3 C-6.34 4.98 -5.68 6.96 -5 9 C-7.62187494 7.95125002 -8.79371361 7.35068687 -10.25 4.875 C-10.4975 4.25625 -10.745 3.6375 -11 3 C-7.50766451 -0.35264207 -4.73431665 -0.52603518 0 0 Z " fill="#51770F" transform="translate(24,19)"/>
<path d="M0 0 C1.32 0.66 2.64 1.32 4 2 C4 5 4 5 1.375 7.6875 C-1.17090198 9.71209824 -1.96423253 9.9966882 -5.375 10.3125 C-6.24125 10.209375 -7.1075 10.10625 -8 10 C-7.4225 9.731875 -6.845 9.46375 -6.25 9.1875 C-3.87632037 7.93472464 -1.93793429 6.86872235 0 5 C0.33425735 2.37374861 0.33425735 2.37374861 0 0 Z " fill="#292E21" transform="translate(28,18)"/>
<path d="M0 0 C0.99 0 1.98 0 3 0 C3 2.31 3 4.62 3 7 C3.99 7.33 4.98 7.66 6 8 C4.68 8.33 3.36 8.66 2 9 C0.4375 6.1875 0.4375 6.1875 -1 3 C-0.67 2.01 -0.34 1.02 0 0 Z " fill="#394A1B" transform="translate(17,21)"/>
<path d="M0 0 C-0.33 0.66 -0.66 1.32 -1 2 C-3.06640625 2.4140625 -3.06640625 2.4140625 -5.5625 2.625 C-6.38878906 2.69976563 -7.21507812 2.77453125 -8.06640625 2.8515625 C-9.02353516 2.92503906 -9.02353516 2.92503906 -10 3 C-3.66666667 -1.22222222 -3.66666667 -1.22222222 0 0 Z " fill="#6DAA03" transform="translate(30,27)"/>
</svg>
